<?xml version="1.0" standalone="no"?>
<!DOCTYPE svg PUBLIC "-//W3C//DTD SVG 20010904//EN"
 "http://www.w3.org/TR/2001/REC-SVG-20010904/DTD/svg10.dtd">
<svg version="1.0" xmlns="http://www.w3.org/2000/svg"
 width="700.000000pt" height="700.000000pt" viewBox="0 0 700.000000 700.000000"
 preserveAspectRatio="xMidYMid meet">
<metadata>
Created by potrace 1.11, written by Peter Selinger 2001-2013
</metadata>
<g transform="translate(0.000000,700.000000) scale(0.100000,-0.100000)"
fill="#000000" stroke="none">
<path d="M780 6730 c-202 -35 -382 -177 -466 -366 -88 -199 -61 -447 66 -618
33 -45 198 -214 301 -308 20 -18 58 -53 86 -78 83 -78 283 -242 383 -317 436
-324 768 -435 980 -328 113 57 187 174 193 304 6 132 -23 241 -113 426 -127
260 -397 617 -720 949 -210 216 -254 253 -358 297 -98 42 -241 58 -352 39z"/>
<path d="M5955 6725 c-153 -33 -234 -86 -410 -268 -153 -157 -200 -207 -290
-312 -33 -38 -71 -82 -83 -96 -68 -78 -195 -248 -268 -359 -258 -392 -322
-686 -187 -867 74 -100 170 -145 308 -146 327 -1 858 345 1455 944 162 164
218 276 227 461 10 183 -47 335 -172 463 -123 125 -254 184 -425 190 -55 2
-120 -2 -155 -10z"/>
<path d="M3341 6530 c-239 -65 -415 -257 -460 -504 -9 -51 -7 -386 3 -486 39
-375 123 -602 276 -743 91 -83 178 -119 302 -125 268 -13 439 109 554 397 14
35 27 71 29 80 2 9 10 41 19 71 8 30 18 73 21 95 4 22 8 50 10 61 2 12 6 48
10 80 4 33 9 70 11 84 3 14 6 122 9 240 3 199 2 221 -19 300 -56 211 -212 376
-416 442 -96 30 -253 34 -349 8z"/>
<path d="M739 4126 c-2 -2 -22 -6 -44 -9 -165 -23 -329 -138 -425 -297 -67
-112 -84 -177 -84 -320 -1 -127 12 -185 61 -285 60 -120 195 -244 324 -296
101 -41 168 -48 409 -44 124 2 236 6 250 9 14 2 59 7 100 10 41 4 86 8 100 10
14 2 50 7 80 10 30 4 75 12 100 18 25 5 54 11 65 13 41 6 183 48 251 75 272
108 407 267 405 479 -1 90 -7 116 -41 187 -70 144 -204 242 -432 318 -98 33
-251 68 -348 81 -25 4 -54 8 -65 10 -11 1 -58 6 -105 10 -47 4 -96 9 -110 11
-33 6 -485 15 -491 10z"/>
<path d="M3385 4119 c-218 -47 -399 -200 -473 -401 -29 -77 -33 -99 -37 -198
-10 -222 101 -429 296 -553 58 -36 148 -73 207 -84 48 -9 187 -9 232 -1 225
41 410 203 486 425 35 100 39 262 10 358 -66 218 -221 375 -436 440 -62 19
-224 27 -285 14z"/>
<path d="M5887 4124 c-1 -1 -50 -5 -108 -8 -58 -4 -116 -8 -130 -11 -13 -2
-49 -6 -79 -10 -89 -9 -224 -34 -324 -60 -353 -92 -545 -251 -573 -475 -18
-138 25 -265 120 -362 71 -72 88 -84 186 -134 150 -76 355 -132 581 -159 177
-21 229 -25 480 -30 245 -5 308 4 423 61 174 86 285 222 338 413 26 95 20 253
-14 349 -68 194 -205 329 -402 399 -77 27 -87 28 -288 28 -114 1 -208 0 -210
-1z"/>
<path d="M1925 2429 c-183 -37 -373 -131 -620 -308 -80 -57 -322 -246 -335
-261 -3 -3 -50 -46 -105 -95 -173 -155 -356 -338 -399 -400 -74 -104 -107
-204 -112 -334 -14 -332 229 -613 561 -649 130 -14 290 23 398 92 57 37 208
183 362 351 50 54 97 105 105 114 8 9 49 57 91 106 522 622 671 1071 431 1300
-63 60 -144 91 -260 99 -18 1 -70 -6 -117 -15z"/>
<path d="M4821 2426 c-123 -36 -209 -119 -246 -234 -17 -54 -23 -170 -11 -208
3 -11 8 -34 11 -52 28 -165 194 -465 407 -737 188 -241 507 -587 631 -686 184
-147 465 -170 680 -57 38 20 94 64 142 113 147 147 209 331 180 539 -8 60 -50
172 -87 232 -54 89 -428 453 -614 596 -16 12 -34 27 -40 33 -11 10 -31 26
-130 100 -108 81 -141 104 -235 163 -142 89 -317 170 -417 193 -122 27 -191
28 -271 5z"/>
<path d="M3470 2422 c-191 -14 -331 -106 -432 -283 -32 -54 -93 -215 -103
-267 -3 -15 -7 -38 -10 -52 -14 -60 -33 -187 -40 -260 -3 -30 -7 -147 -10
-260 -3 -188 -2 -212 19 -292 47 -177 166 -322 332 -405 287 -141 643 -37 810
238 77 128 94 211 89 454 -4 246 -23 430 -61 570 -8 33 -17 67 -19 76 -2 9
-18 52 -35 95 -72 181 -182 302 -321 353 -59 22 -163 38 -219 33z"/>
</g>
</svg>
