<svg viewBox="0 0 251 87" fill="none" xmlns="http://www.w3.org/2000/svg">
  <g>
    <circle cx="39" cy="44" r="7" fill="currentColor" class="text-primary-500"/>
    <path d="M26 44C26 51 12.866 51 8.99996 51C5.13396 51 1.99996 47.866 1.99996 44C1.99996 40.134 5.13396 37 8.99996 37C12.866 37 26 37 26 44Z" fill="currentColor" class="text-primary-500" />
    <path d="M24.7487 29.7487C19.799 34.6985 7.68342 22.5829 4.94975 19.8492C2.21608 17.1156 2.21608 12.6834 4.94975 9.94975C7.68342 7.21608 12.1156 7.21608 14.8492 9.94975C17.5829 12.6834 29.6985 24.799 24.7487 29.7487Z" fill="currentColor" class="text-primary-500" />
    <path d="M52.9497 29.7487C48 24.799 60.1155 12.6834 62.8492 9.94976C65.5829 7.21609 70.015 7.21609 72.7487 9.94976C75.4824 12.6834 75.4824 17.1156 72.7487 19.8493C70.015 22.5829 57.8995 34.6985 52.9497 29.7487Z" fill="currentColor" class="text-primary-500" />
    <path d="M51.9497 56.9498C56.8994 52 69.015 64.1156 71.7487 66.8492C74.4823 69.5829 74.4823 74.0151 71.7487 76.7487C69.015 79.4824 64.5828 79.4824 61.8492 76.7487C59.1155 74.0151 46.9999 61.8995 51.9497 56.9498Z" fill="currentColor" class="text-primary-500" />
    <path d="M25.7487 56.9497C30.6984 61.8995 18.5829 74.0151 15.8492 76.7487C13.1155 79.4824 8.68337 79.4824 5.9497 76.7487C3.21603 74.0151 3.21604 69.5829 5.94971 66.8492C8.68338 64.1156 20.7989 52 25.7487 56.9497Z" fill="currentColor" class="text-primary-500" />
    <path d="M52 44C52 37 65.134 37 69 37C72.866 37 76 40.134 76 44C76 47.866 72.866 51 69 51C65.134 51 52 51 52 44Z" fill="currentColor" class="text-primary-500" />
    <path d="M39 31C32 31 32 20.866 32 17C32 13.134 35.134 10 39 10C42.866 10 46 13.134 46 17C46 20.866 46 31 39 31Z" fill="currentColor" class="text-primary-300" />
    <path d="M39 56C46 56 46 66.134 46 70C46 73.866 42.866 77 39 77C35.134 77 32 73.866 32 70C32 66.134 32 56 39 56Z" fill="currentColor" class="text-primary-300" />
  </g>
  <path d="M100.523 70V30.7273H106.352V36.8636H106.864C107.682 34.767 109.003 33.1392 110.827 31.9801C112.651 30.804 114.841 30.2159 117.398 30.2159C119.989 30.2159 122.145 30.804 123.866 31.9801C125.605 33.1392 126.96 34.767 127.932 36.8636H128.341C129.347 34.8352 130.855 33.2244 132.866 32.0312C134.878 30.821 137.29 30.2159 140.102 30.2159C143.614 30.2159 146.486 31.3153 148.719 33.5142C150.952 35.696 152.068 39.0966 152.068 43.7159V70H146.034V43.7159C146.034 40.8182 145.241 38.7472 143.656 37.5028C142.071 36.2585 140.205 35.6364 138.057 35.6364C135.295 35.6364 133.156 36.4716 131.639 38.142C130.122 39.7955 129.364 41.892 129.364 44.4318V70H123.227V43.1023C123.227 40.8693 122.503 39.071 121.054 37.7074C119.605 36.3267 117.739 35.6364 115.455 35.6364C113.886 35.6364 112.42 36.054 111.057 36.8892C109.71 37.7244 108.619 38.8835 107.784 40.3665C106.966 41.8324 106.557 43.5284 106.557 45.4545V70H100.523ZM163.101 70V30.7273H169.135V70H163.101ZM166.169 24.1818C164.993 24.1818 163.979 23.7812 163.126 22.9801C162.291 22.179 161.874 21.2159 161.874 20.0909C161.874 18.9659 162.291 18.0028 163.126 17.2017C163.979 16.4006 164.993 16 166.169 16C167.345 16 168.351 16.4006 169.186 17.2017C170.038 18.0028 170.464 18.9659 170.464 20.0909C170.464 21.2159 170.038 22.179 169.186 22.9801C168.351 23.7812 167.345 24.1818 166.169 24.1818ZM180.187 30.7273H186.221V72.8636C186.221 75.2841 185.803 77.3807 184.968 79.1534C184.15 80.9261 182.906 82.2983 181.235 83.2699C179.582 84.2415 177.494 84.7273 174.971 84.7273C174.766 84.7273 174.562 84.7273 174.357 84.7273C174.153 84.7273 173.948 84.7273 173.744 84.7273V79.1023C173.948 79.1023 174.136 79.1023 174.306 79.1023C174.477 79.1023 174.664 79.1023 174.869 79.1023C176.71 79.1023 178.056 78.5568 178.908 77.4659C179.761 76.392 180.187 74.858 180.187 72.8636V30.7273ZM183.153 24.1818C181.977 24.1818 180.962 23.7812 180.11 22.9801C179.275 22.179 178.857 21.2159 178.857 20.0909C178.857 18.9659 179.275 18.0028 180.11 17.2017C180.962 16.4006 181.977 16 183.153 16C184.329 16 185.335 16.4006 186.17 17.2017C187.022 18.0028 187.448 18.9659 187.448 20.0909C187.448 21.2159 187.022 22.179 186.17 22.9801C185.335 23.7812 184.329 24.1818 183.153 24.1818ZM197.273 70V30.7273H203.307V70H197.273ZM200.341 24.1818C199.165 24.1818 198.151 23.7812 197.298 22.9801C196.463 22.179 196.045 21.2159 196.045 20.0909C196.045 18.9659 196.463 18.0028 197.298 17.2017C198.151 16.4006 199.165 16 200.341 16C201.517 16 202.523 16.4006 203.358 17.2017C204.21 18.0028 204.636 18.9659 204.636 20.0909C204.636 21.2159 204.21 22.179 203.358 22.9801C202.523 23.7812 201.517 24.1818 200.341 24.1818ZM220.393 46.375V70H214.359V30.7273H220.188V36.8636H220.7C221.62 34.8693 223.018 33.267 224.893 32.0568C226.768 30.8295 229.188 30.2159 232.154 30.2159C234.813 30.2159 237.14 30.7614 239.134 31.8523C241.129 32.9261 242.68 34.5625 243.788 36.7614C244.896 38.9432 245.45 41.7045 245.45 45.0455V70H239.415V45.4545C239.415 42.3693 238.614 39.9659 237.012 38.2443C235.41 36.5057 233.211 35.6364 230.415 35.6364C228.489 35.6364 226.768 36.054 225.251 36.8892C223.751 37.7244 222.566 38.9432 221.697 40.5455C220.827 42.1477 220.393 44.0909 220.393 46.375Z" fill="currentColor" class="text-gray-900 dark:text-white"/>
</svg>
